<svg xmlns="http://www.w3.org/2000/svg" width="24" height="24" viewBox="0 0 24 24">
  <g id="Grupo_193" data-name="Grupo 193" transform="translate(-243 -232)">
    <rect id="Retângulo_4" data-name="Retângulo 4" width="24" height="24" transform="translate(243 232)" fill="none"/>
    <path id="bird2" d="M35.6,6.137c-.008-.072-.1-.072-.15-.072a19.545,19.545,0,0,0-3.944.821.843.843,0,0,1-.247.049c-.123,0-.171-.058-.267-.19a1.5,1.5,0,0,0-.7-.56,1.535,1.535,0,0,0-.607-.114A3.857,3.857,0,0,0,27,7.463c0,.005-.006.006-.007.006-.057,0-.257-.224-.6-1.071a16.372,16.372,0,0,1-.66-2,16.514,16.514,0,0,0-1.3-2.977c-.183-.354-.328-.634-.364-.743-.028-.084-.072-.127-.131-.127a.155.155,0,0,0-.111.058A15.6,15.6,0,0,0,22.6,5.828a2.726,2.726,0,0,0,1.121,1.845c.041.035.086.073.12.1a6.4,6.4,0,0,1-1.093-.808,39.449,39.449,0,0,0-3.4-2.54A25.216,25.216,0,0,1,15.025.783C14.479.226,14.252,0,14.092,0a.149.149,0,0,0-.143.11C13.765.6,14,5.661,16.277,8.4a11.22,11.22,0,0,0,3.971,2.831c.619.3,1.108.535,1.184.757a.187.187,0,0,1-.014.152,6.642,6.642,0,0,1-.5.766,14.342,14.342,0,0,0-2.232,4.353c-.307.98-3.514,4.411-4.348,5.245-.041.041-.995,1-.883,1.27a.12.12,0,0,0,.12.072,4.674,4.674,0,0,0,1.564-1.017,29.756,29.756,0,0,0,2.393-2.163c.532-.526.865-.854,1.094-.889-.021.112-.087.4-.287,1.126a.1.1,0,0,0,.008.089l.022.036H18.4c.049,0,.074-.039.284-.3.643-.8,2.6-3.237,5.319-3.771a6.053,6.053,0,0,0,4.27-4.009c1.056-3.355,1.94-5.466,6.6-6.535C35.609,6.242,35.6,6.2,35.6,6.137Z" transform="translate(230.419 232.155)" fill="#515151"/>
  </g>
</svg>
