<svg xmlns="http://www.w3.org/2000/svg" width="24" height="24" viewBox="0 0 24 24">
  <g id="Grupo_194" data-name="Grupo 194" transform="translate(-270 -232)">
    <rect id="Retângulo_7" data-name="Retângulo 7" width="24" height="24" transform="translate(270 232)" fill="none"/>
    <g id="location" transform="translate(202.427 232)">
      <g id="Grupo_190" data-name="Grupo 190" transform="translate(70.573)">
        <path id="Caminho_1" data-name="Caminho 1" d="M79.265,0a8.7,8.7,0,0,0-8.692,8.692c0,5.948,7.778,14.68,8.11,15.049a.783.783,0,0,0,1.165,0c.331-.369,8.11-9.1,8.11-15.049A8.7,8.7,0,0,0,79.265,0Zm0,13.065a4.373,4.373,0,1,1,4.373-4.373A4.378,4.378,0,0,1,79.265,13.065Z" transform="translate(-70.573 0)" fill="#515151"/>
      </g>
    </g>
  </g>
</svg>
